Coordinates
version=1
nRows=13
nColumns=40
inDegrees=yes

Units are S.I. units (second, meters, Newtons, ...)
Angles are in degrees.

endheader
time	pelvis_tilt	pelvis_list	pelvis_rotation	pelvis_tx	pelvis_ty	pelvis_tz	hip_flexion_r	hip_adduction_r	hip_rotation_r	knee_angle_r	knee_angle_r_beta	ankle_angle_r	subtalar_angle_r	mtp_angle_r	hip_flexion_l	hip_adduction_l	hip_rotation_l	knee_angle_l	knee_angle_l_beta	ankle_angle_l	subtalar_angle_l	mtp_angle_l	lumbar_extension	lumbar_bending	lumbar_rotation	arm_flex_r	arm_add_r	arm_rot_r	elbow_flex_r	pro_sup_r	wrist_flex_r	wrist_dev_r	arm_flex_l	arm_add_l	arm_rot_l	elbow_flex_l	pro_sup_l	wrist_flex_l	wrist_dev_l
     19.41000000	     -3.65273932	     -5.69230434	     -9.98347905	      0.97990718	      0.91902079	      0.57053660	     15.77125499	      7.89369090	     -7.18232241	     26.82045184	     26.82045184	     16.91018266	      1.81574187	      0.65244979	     17.83904008	    -17.87828452	     -0.78859773	     75.84835679	     75.84835679	     18.22515000	    -19.58493805	     23.02949648	    -10.41175349	      9.68937381	      1.31048873	     19.16500005	    -14.85958494	    -13.27184260	     37.36214545	     45.31548890	      0.00000000	      0.00000000	     17.41254905	    -12.23249551	      2.96908338	     45.08431869	     45.45603298	      0.00000000	      0.00000000
     19.42985714	     -3.03197770	     -5.73043716	     -9.02165669	      0.97959675	      0.91615279	      0.57093275	     15.75175205	      7.96898917	     -6.64035229	     28.65036825	     28.65036825	     17.79460734	     -0.75450234	      0.45796552	     18.81581409	    -18.04459010	     -0.00348426	     75.06888909	     75.06888909	     18.82724733	    -19.63823015	     23.44760601	    -10.57866517	      9.51583034	      0.56957476	     21.18922036	    -14.37697894	    -13.22922045	     39.03243884	     45.26929014	      0.00000000	      0.00000000	     14.68993515	    -11.50337249	      3.54363069	     42.79588014	     45.37711952	      0.00000000	      0.00000000
     19.44971429	     -2.39627070	     -5.81309339	     -8.05970725	      0.97913759	      0.91325277	      0.57134040	     15.64537254	      8.15039282	     -6.10527925	     30.35866745	     30.35866745	     18.60655668	     -3.33606244	      0.35277635	     19.81949229	    -18.22821142	      0.72038766	     74.09177115	     74.09177115	     19.45154260	    -19.67438079	     24.06471384	    -10.79884767	      9.36230767	     -0.09279191	     23.17485276	    -13.98155031	    -12.96449099	     41.03006304	     45.19941367	      0.00000000	      0.00000000	     12.15478301	    -10.71417168	      4.19545559	     40.00544225	     45.29027044	      0.00000000	      0.00000000
     19.46957143	     -1.74419431	     -5.95345370	     -7.11199821	      0.97850387	      0.91051108	      0.57160187	     15.43667898	      8.38412285	     -5.73934957	     31.92650104	     31.92650104	     19.49090979	     -5.55788370	      0.80252087	     20.85319630	    -18.42111613	      1.33781815	     72.94564205	     72.94564205	     20.19326526	    -19.69734401	     25.12453334	    -11.10062627	      9.30513014	      0.29766939	     24.08671498	    -14.62183545	    -11.48947987	     44.65862024	     45.03849149	      0.00000000	      0.00000000	     11.12439634	     -9.32890425	      5.38185196	     34.54685602	     45.23278649	      0.00000000	      0.00000000
     19.48942857	     -1.16178110	     -5.95463593	     -6.16302576	      0.97760861	      0.90786783	      0.57163409	     15.26755288	      8.40670570	     -5.64676906	     33.37463646	     33.37463646	     20.23258514	     -7.25745938	      0.71086067	     21.96053731	    -18.43088795	      1.74457270	     71.51262664	     71.51262664	     20.54022168	    -19.71534874	     25.24093524	    -11.36778808	      9.08589380	     -0.14735314	     26.13331176	    -14.34608457	    -11.30072737	     46.79183666	     44.97435154	      0.00000000	      0.00000000	      8.51939823	     -8.73451208	      5.81923981	     32.43125810	     45.16157998	      0.00000000	      0.00000000
     19.50928571	     -0.62109180	     -5.94531681	     -5.25276738	      0.97647106	      0.90560032	      0.57147751	     15.02345763	      8.40611473	     -5.66569126	     34.57373567	     34.57373567	     20.88719051	     -8.70337829	      0.72521849	     23.08860369	    -18.35650542	      1.99538867	     69.83477545	     69.83477545	     20.85116121	    -19.72402211	     25.40087596	    -11.65191968	      8.85192176	     -0.33220048	     28.08524297	    -14.25533752	    -11.00727541	     48.98196970	     44.90261256	      0.00000000	      0.00000000	      6.15666507	     -8.17008772	      6.18372362	     30.31129834	     45.09682497	      0.00000000	      0.00000000
     19.52914286	     -0.16863351	     -6.01556693	     -4.36031422	      0.97510676	      0.90387017	      0.57103662	     14.63098470	      8.38251989	     -6.05359743	     35.30656697	     35.30656697	     21.42370524	     -9.38141608	      0.55216294	     24.26688234	    -18.27603916	      2.15568736	     67.88479727	     67.88479727	     20.98785454	    -19.72470109	     25.30286233	    -11.87626591	      8.69963422	      0.34892850	     29.90566051	    -14.99663766	    -11.10096101	     50.04010456	     44.88230430	      0.00000000	      0.00000000	      3.96781584	     -7.56793220	      6.32981428	     29.32488153	     45.04558372	      0.00000000	      0.00000000
     19.54900000	      0.19803997	     -5.94898955	     -3.48292751	      0.97334586	      0.90251852	      0.57039090	     14.35975518	      8.31479502	     -6.16540693	     36.03220168	     36.03220168	     22.12966000	    -10.41870974	      1.29626773	     25.49091385	    -17.93620972	      2.20121965	     65.72657950	     65.72657950	     21.07341472	    -19.71674488	     25.33529685	    -12.15259396	      8.48368369	      0.43839971	     30.83252241	    -15.49586272	     -9.38900290	     55.47817666	     44.66603928	      0.00000000	      0.00000000	      2.50931820	     -7.16209107	      6.62728077	     26.06126879	     45.04912131	      0.00000000	      0.00000000
     19.56885714	      0.47373828	     -5.79727226	     -2.60993398	      0.97141522	      0.90187187	      0.56945062	     13.95125521	      8.07175386	     -6.52178432	     36.29281753	     36.29281753	     22.51807304	    -10.97557925	      1.28432404	     26.64732577	    -17.38053958	      2.16240855	     63.24204032	     63.24204032	     20.94023943	    -19.70052303	     25.03843457	    -12.28394245	      8.13856804	      0.60266320	     32.81912484	    -15.64442231	     -9.40789190	     57.42569137	     44.62394435	      0.00000000	      0.00000000	      0.37929066	     -7.10763148	      6.65671058	     25.13142836	     45.02199724	      0.00000000	      0.00000000
     19.58871429	      0.67321029	     -5.62591147	     -1.73508639	      0.96931178	      0.90193633	      0.56818156	     13.43612857	      7.79696863	     -6.92802521	     36.17854643	     36.17854643	     22.77460850	    -11.36616988	      1.29798223	     27.70455509	    -16.64344176	      2.16907044	     60.48145804	     60.48145804	     20.65717492	    -19.67384612	     24.60603435	    -12.38276646	      7.78732133	      0.81568368	     34.75261727	    -15.92663563	     -9.30555773	     59.60402364	     44.56850270	      0.00000000	      0.00000000	     -1.62590781	     -7.19124486	      6.61147272	     24.50964147	     45.00579780	      0.00000000	      0.00000000
     19.60857143	      0.70990706	     -5.46932477	     -0.80270849	      0.96706288	      0.90249865	      0.56658699	     12.91296071	      7.51017318	     -7.46951978	     35.70524336	     35.70524336	     22.89639097	    -11.59262644	      1.26271215	     28.77050700	    -15.78245137	      2.29606809	     57.48282531	     57.48282531	     20.04885184	    -19.62565823	     23.65095072	    -12.36742204	      7.47477549	      1.08462244	     36.33064590	    -16.50325528	     -8.88497067	     62.57588447	     44.48659803	      0.00000000	      0.00000000	     -3.55622432	     -7.39562092	      6.42730405	     24.45583212	     45.02001539	      0.00000000	      0.00000000
     19.62842857	      0.72649076	     -5.18847391	      0.09231644	      0.96481599	      0.90386537	      0.56471628	     12.22579299	      7.10675077	     -7.95434725	     34.89173647	     34.89173647	     22.82004880	    -11.79062871	      1.04274158	     29.49711642	    -14.67423287	      2.43904032	     54.11750723	     54.11750723	     19.11668510	    -19.55509768	     22.21773316	    -12.35035055	      7.00346867	      1.60745918	     37.74715352	    -17.45666037	     -8.41964569	     65.42912865	     44.43599722	      0.00000000	      0.00000000	     -5.26244298	     -7.74280278	      6.18213535	     24.75806887	     45.06257128	      0.00000000	      0.00000000
     19.64828571	      0.54548832	     -4.87308396	      1.01573433	      0.96247461	      0.90559323	      0.56251287	     11.60854023	      6.66631148	     -8.48400394	     33.81467673	     33.81467673	     22.73129081	    -11.91303299	      1.20720126	     30.23574802	    -13.34257397	      2.90118551	     50.67027489	     50.67027489	     18.51484067	    -19.43177612	     22.16340963	    -12.05438425	      6.47407417	      1.94156728	     39.73317178	    -18.03222513	     -8.55174394	     66.57122670	     44.41867269	      0.00000000	      0.00000000	     -6.60103995	     -8.07013066	      6.12921951	     24.36560251	     45.05124955	      0.00000000	      0.00000000
